<svg width="94" height="94" viewBox="0 0 94 94" fill="none" xmlns="http://www.w3.org/2000/svg">
<rect width="94" height="94" rx="5" fill="#C6C3BD"/>
<rect x="5" y="5" width="84" height="84" rx="5" fill="#F0EBE4"/>
<path d="M47.2908 74.0281C62.462 74.0281 74.7607 61.7294 74.7607 46.5582C74.7607 31.387 62.462 19.0883 47.2908 19.0883C32.1196 19.0883 19.8209 31.387 19.8209 46.5582C19.8209 61.7294 32.1196 74.0281 47.2908 74.0281Z" fill="#FCCE00"/>
<path d="M47.1075 17.0001C55.4233 17.0005 62.9521 20.3756 68.3965 25.82C73.8398 31.2637 77.2078 38.7892 77.2085 47.1041C77.2081 55.4199 73.8398 62.9521 68.395 68.3965C62.9517 73.8398 55.4262 77.2078 47.1113 77.2085C38.7951 77.2081 31.2633 73.8398 25.8192 68.395C20.3759 62.9517 17.0079 55.4262 17.0068 47.1113C17.0072 38.7951 20.3755 31.2633 25.8199 25.8192C31.2636 20.3759 38.7926 17.0012 47.1075 17.0001ZM47.1094 20.4372C39.7541 20.438 33.0835 23.4257 28.2548 28.2541C23.4257 33.0828 20.4376 39.7495 20.4372 47.1061C20.438 54.4618 23.4257 61.1323 28.2541 65.9607C33.0828 70.7898 39.7496 73.7779 47.1061 73.7783C54.4618 73.7775 61.132 70.7902 65.9607 65.9618C70.7898 61.1327 73.7779 54.4663 73.7783 47.1094C73.7775 39.7541 70.7902 33.0835 65.9618 28.2548C61.1327 23.4257 54.4663 20.4376 47.1094 20.4372Z" fill="black"/>
<path fill-rule="evenodd" clip-rule="evenodd" d="M56.3995 34.1071C55.1691 34.1071 54.0021 34.2016 52.9538 34.4298C52.4881 34.5312 52.0156 34.6067 51.539 34.6067H42.5377C42.0611 34.6067 41.5886 34.5312 41.1229 34.4298C40.0743 34.2016 38.9065 34.1071 37.676 34.1071C33.1308 34.1071 29.4446 35.4 29.4446 39.9457C29.4446 44.4914 31.5823 48.0366 36.1276 48.0366C40.6732 48.0366 45.9083 42.6798 45.9083 39.9457C45.9083 39.3463 45.901 38.905 45.8867 38.5743C45.8545 37.8323 46.2957 37.0963 47.0384 37.0963V37.0963C47.7811 37.0963 48.2214 37.832 48.1891 38.5739C48.1747 38.9047 48.1673 39.3461 48.1673 39.9457C48.1673 42.6798 53.4024 48.0366 57.948 48.0366C62.4933 48.0366 64.631 44.4913 64.631 39.9457C64.631 35.4 60.9448 34.1071 56.3995 34.1071Z" fill="black" stroke="black" stroke-width="0.288001"/>
<path fill-rule="evenodd" clip-rule="evenodd" d="M31.1705 38.8422C30.2566 37.969 28.8052 38.3549 27.773 39.0842C25.636 40.5942 21.9123 43.5873 19.7002 47.4348C18.7382 49.1077 18.2981 50.2338 18.1548 50.9905C17.8921 52.3764 19.5393 51.8059 20.3416 50.6457C22.0068 48.2378 25.2354 44.1076 28.9911 42.0853C31.8712 40.5345 31.8457 39.4874 31.1705 38.8422Z" fill="black"/>
<path fill-rule="evenodd" clip-rule="evenodd" d="M63.0454 38.8422C63.9592 37.969 65.4106 38.3549 66.4428 39.0842C68.5798 40.5942 72.3035 43.5873 74.5156 47.4348C75.4776 49.1077 75.9177 50.2338 76.0611 50.9905C76.3237 52.3764 74.6765 51.8059 73.8742 50.6457C72.209 48.2378 68.9804 44.1076 65.2248 42.0853C62.3446 40.5345 62.3702 39.4874 63.0454 38.8422Z" fill="black"/>
<path fill-rule="evenodd" clip-rule="evenodd" d="M56.7523 55.7155C57.8836 55.0635 59.6092 55.1205 59.6092 56.4263V56.4263C59.6092 59.6911 54.1247 62.3387 47.3619 62.3387C40.5992 62.3387 35.1147 59.6911 35.1147 56.4263V56.4263C35.1147 55.1205 36.8402 55.0635 37.9716 55.7155C40.218 57.0101 43.5909 57.8338 47.3619 57.8338C51.133 57.8338 54.5058 57.0101 56.7523 55.7155Z" fill="black"/>
<path fill-rule="evenodd" clip-rule="evenodd" d="M31.9165 34.6536C32.2472 33.6291 33.6966 33.6293 34.0274 34.6536V34.6536C34.1755 35.1123 34.6029 35.4228 35.0849 35.422V35.422C36.1614 35.4201 36.6094 36.7986 35.7372 37.4297V37.4297C35.3467 37.7123 35.1834 38.2148 35.3332 38.673V38.673C35.6679 39.6962 34.495 40.5479 33.6252 39.9136V39.9136C33.2358 39.6296 32.7075 39.6296 32.3182 39.9136V39.9136C31.4486 40.548 30.2761 39.696 30.6107 38.6729V38.6729C30.7606 38.2148 30.5973 37.7123 30.2068 37.4297V37.4297C29.3345 36.7987 29.7825 35.4201 30.8591 35.422V35.422C31.3411 35.4228 31.7685 35.1123 31.9165 34.6536V34.6536Z" fill="white"/>
</svg>
