<svg width="94" height="94" viewBox="0 0 94 94" fill="none" xmlns="http://www.w3.org/2000/svg">
<rect width="94" height="94" rx="5" fill="#C6C3BD"/>
<rect x="5" y="5" width="84" height="84" rx="5" fill="#F0EBE4"/>
<path d="M47.2906 74.0279C62.4617 74.0279 74.7604 61.7292 74.7604 46.5581C74.7604 31.3869 62.4617 19.0883 47.2906 19.0883C32.1194 19.0883 19.8208 31.3869 19.8208 46.5581C19.8208 61.7292 32.1194 74.0279 47.2906 74.0279Z" fill="#FCCE00"/>
<path d="M47.1073 17C55.423 17.0004 62.9518 20.3755 68.3963 25.8199C73.8395 31.2636 77.2075 38.789 77.2082 47.1039C77.2078 55.4196 73.8395 62.9518 68.3947 68.3963C62.9514 73.8395 55.426 77.2075 47.1111 77.2082C38.795 77.2078 31.2632 73.8395 25.8191 68.3947C20.3759 62.9515 17.008 55.426 17.0068 47.1111C17.0072 38.795 20.3755 31.2632 25.8199 25.8191C31.2636 20.3759 38.7924 17.0012 47.1073 17ZM47.1092 20.4371C39.7539 20.4379 33.0834 23.4256 28.2547 28.2539C23.4256 33.0827 20.4375 39.7493 20.4371 47.1058C20.4379 54.4615 23.4256 61.132 28.254 65.9604C33.0827 70.7895 39.7494 73.7776 47.1059 73.7779C54.4616 73.7772 61.1317 70.7898 65.9604 65.9615C70.7895 61.1324 73.7776 54.4661 73.778 47.1092C73.7772 39.7539 70.7899 33.0833 65.9615 28.2547C61.1324 23.4255 54.4661 20.4374 47.1092 20.4371Z" fill="black"/>
<path fill-rule="evenodd" clip-rule="evenodd" d="M61.0676 61.5063C61.7566 60.3309 62.1384 59.0474 62.1384 57.7037C62.1384 52.0893 55.5178 47.5372 47.354 47.5372C39.1906 47.5372 32.5696 52.0892 32.5696 57.7037C32.5696 58.9888 32.9185 60.2186 33.5508 61.3517C34.6831 56.1073 40.4053 52.1157 47.2928 52.1157C54.2478 52.1157 60.0147 56.1855 61.0676 61.5063Z" fill="black"/>
<path fill-rule="evenodd" clip-rule="evenodd" d="M40.6893 29.7317L42.3463 31.3887C42.4271 31.4696 42.3935 31.6355 42.2718 31.7572L38.3335 35.6955L42.2521 39.6141C42.3848 39.7467 42.4211 39.9274 42.333 40.0155L40.7025 41.6459C40.6145 41.7344 40.4338 41.6981 40.3012 41.5651L36.3825 37.6464L32.4439 41.5851C32.3222 41.7068 32.1567 41.7404 32.0758 41.6592L30.4184 40.0022C30.3376 39.9213 30.3712 39.7558 30.4929 39.6341L34.4312 35.6955L30.5129 31.7772C30.3803 31.6442 30.344 31.4635 30.4321 31.3755L32.0625 29.745C32.1506 29.6569 32.3313 29.6932 32.4639 29.8259L36.3825 33.7445L40.3208 29.8062C40.4425 29.6841 40.6081 29.6509 40.6893 29.7317Z" fill="black"/>
<path fill-rule="evenodd" clip-rule="evenodd" d="M61.9394 29.7317L63.5964 31.3887C63.6773 31.4696 63.644 31.6355 63.5219 31.7572L59.5837 35.6955L63.5023 39.6141C63.6349 39.7467 63.6712 39.9274 63.5831 40.0155L61.9527 41.6459C61.8646 41.7344 61.6839 41.6981 61.5513 41.5651L57.6327 37.6464L53.694 41.5851C53.5723 41.7068 53.4068 41.7404 53.3259 41.6592L51.6686 40.0022C51.5877 39.9213 51.6213 39.7558 51.743 39.6341L55.6813 35.6955L51.7631 31.7772C51.6304 31.6442 51.5941 31.4635 51.6822 31.3755L53.3127 29.745C53.4007 29.6569 53.5814 29.6932 53.7141 29.8259L57.6327 33.7445L61.5709 29.8062C61.6926 29.6841 61.8586 29.6509 61.9394 29.7317Z" fill="black"/>
</svg>
