<svg width="94" height="94" viewBox="0 0 94 94" fill="none" xmlns="http://www.w3.org/2000/svg">
<rect width="94" height="94" rx="5" fill="#C6C3BD"/>
<rect x="5" y="5" width="84" height="84" rx="5" fill="#F0EBE4"/>
<path d="M47.2907 74.0279C62.4619 74.0279 74.7605 61.7292 74.7605 46.5581C74.7605 31.3869 62.4619 19.0883 47.2907 19.0883C32.1195 19.0883 19.8209 31.3869 19.8209 46.5581C19.8209 61.7292 32.1195 74.0279 47.2907 74.0279Z" fill="#FCCE00"/>
<path d="M47.1074 17.0001C55.4231 17.0005 62.9519 20.3756 68.3964 25.82C73.8396 31.2637 77.2076 38.7891 77.2083 47.104C77.208 55.4197 73.8396 62.9519 68.3948 68.3964C62.9516 73.8396 55.4262 77.2076 47.1111 77.2083C38.795 77.208 31.2632 73.8396 25.8192 68.3948C20.3759 62.9516 17.008 55.4262 17.0068 47.1111C17.0072 38.795 20.3755 31.2632 25.8199 25.8192C31.2636 20.3759 38.7925 17.0012 47.1074 17.0001ZM47.1093 20.4372C39.7539 20.4379 33.0834 23.4257 28.2548 28.254C23.4256 33.0828 20.4376 39.7495 20.4372 47.1059C20.438 54.4616 23.4257 61.1321 28.2541 65.9604C33.0828 70.7896 39.7495 73.7776 47.1059 73.778C54.4616 73.7772 61.1318 70.7899 65.9605 65.9615C70.7896 61.1324 73.7776 54.4661 73.778 47.1093C73.7773 39.7539 70.7899 33.0834 65.9615 28.2547C61.1324 23.4256 54.4661 20.4376 47.1093 20.4372Z" fill="black"/>
<path fill-rule="evenodd" clip-rule="evenodd" d="M58.6871 54.1732C59.2801 54.8675 59.6089 55.6283 59.6089 56.4262C59.6089 59.6909 54.1245 62.3385 47.3618 62.3385C40.5991 62.3385 35.1147 59.6909 35.1147 56.4262C35.1147 55.6283 35.4435 54.8675 36.0365 54.1732C37.8718 56.3207 42.2512 57.8337 47.3618 57.8337C52.4725 57.8337 56.8518 56.3207 58.6871 54.1732Z" fill="black"/>
<path d="M37.6939 45.5113C40.504 45.5113 42.7821 43.2333 42.7821 40.4232C42.7821 37.6131 40.504 35.335 37.6939 35.335C34.8838 35.335 32.6058 37.6131 32.6058 40.4232C32.6058 43.2333 34.8838 45.5113 37.6939 45.5113Z" fill="black"/>
<path d="M55.6235 45.5113C58.4337 45.5113 60.7117 43.2333 60.7117 40.4232C60.7117 37.6131 58.4337 35.335 55.6235 35.335C52.8134 35.335 50.5354 37.6131 50.5354 40.4232C50.5354 43.2333 52.8134 45.5113 55.6235 45.5113Z" fill="black"/>
</svg>
