<svg width="94" height="94" viewBox="0 0 94 94" fill="none" xmlns="http://www.w3.org/2000/svg">
<rect width="94" height="94" fill="white"/>
<rect x="5" y="5" width="84" height="84" rx="2" fill="#FFB2B2"/>
<path d="M55.2519 43.3055H49.7353V63.182H55.2519V43.3055Z" fill="black" stroke="black" stroke-width="0.288"/>
<path d="M58.5322 59.2472H40.0283C38.2789 59.2472 36.8607 60.6654 36.8607 62.4148V66.1558C36.8607 67.9052 38.2789 69.3234 40.0283 69.3234H58.5322C60.2816 69.3234 61.6998 67.9052 61.6998 66.1558V62.4148C61.6998 60.6654 60.2816 59.2472 58.5322 59.2472Z" fill="black"/>
<path d="M69.4901 65.7385H29.3394C27.485 65.7385 25.9817 67.2418 25.9817 69.0963V74.4359C25.9817 76.2904 27.485 77.7937 29.3394 77.7937H69.4901C71.3445 77.7937 72.8478 76.2904 72.8478 74.4359V69.0963C72.8478 67.2418 71.3445 65.7385 69.4901 65.7385Z" fill="black"/>
<path d="M56 16V46L23.1424 32.857C21.4661 32.1864 21.4661 29.8136 23.1424 29.143L56 16Z" fill="#DB3C3C"/>
</svg>
