<svg width="94" height="94" viewBox="0 0 94 94" fill="none" xmlns="http://www.w3.org/2000/svg">
<path d="M94 0H0V94H94V0Z" fill="white"/>
<path d="M87 5H7C5.89543 5 5 5.89543 5 7V87C5 88.1046 5.89543 89 7 89H87C88.1046 89 89 88.1046 89 87V7C89 5.89543 88.1046 5 87 5Z" fill="#FF0000"/>
<path fill-rule="evenodd" clip-rule="evenodd" d="M8.56443 49.1813L8 46.7512L8.56443 44.2876H44.3783V8.47375L46.8103 8L49.2719 8.47375V44.2876H85.0865L85.4434 46.7456L85.0865 49.1813H49.2719V84.9959L46.9442 85.419L44.3783 84.9959V49.1813H8.56443Z" fill="black" stroke="black" stroke-width="0.287999"/>
<path d="M27.5715 31.1037C29.7145 31.1037 31.4519 29.3663 31.4519 27.2232C31.4519 25.0802 29.7145 23.3428 27.5715 23.3428C25.4284 23.3428 23.691 25.0802 23.691 27.2232C23.691 29.3663 25.4284 31.1037 27.5715 31.1037Z" fill="black" stroke="black" stroke-width="0.287999"/>
<path fill-rule="evenodd" clip-rule="evenodd" d="M23.2964 73.4783L21.1972 72.2853L20.0812 70.2631L43.6101 46.7346L20.0812 23.2061L21.4295 21.1764L23.2964 19.9909L46.8249 43.5194L70.3538 19.9905L72.3872 21.1998L73.569 23.2057L50.0401 46.7346L73.569 70.2635L72.4647 72.3566L70.3538 73.4787L46.8249 49.9498L23.2964 73.4783Z" fill="black" stroke="black" stroke-width="0.287999"/>
<path d="M47.027 23.4104C49.1701 23.4104 50.9074 21.673 50.9074 19.5299C50.9074 17.3869 49.1701 15.6495 47.027 15.6495C44.8839 15.6495 43.1466 17.3869 43.1466 19.5299C43.1466 21.673 44.8839 23.4104 47.027 23.4104Z" fill="black" stroke="black" stroke-width="0.287999"/>
<path d="M46.8253 72.9834C61.5678 72.9834 73.5189 61.0322 73.5189 46.2897C73.5189 31.5472 61.5678 19.5961 46.8253 19.5961C32.0828 19.5961 20.1316 31.5472 20.1316 46.2897C20.1316 61.0322 32.0828 72.9834 46.8253 72.9834Z" fill="black"/>
<path d="M65.3246 32.1433C67.4677 32.1433 69.205 30.4059 69.205 28.2629C69.205 26.1198 67.4677 24.3824 65.3246 24.3824C63.1815 24.3824 61.4442 26.1198 61.4442 28.2629C61.4442 30.4059 63.1815 32.1433 65.3246 32.1433Z" fill="black" stroke="black" stroke-width="0.287999"/>
<path d="M28.1952 69.107C30.3383 69.107 32.0756 67.3696 32.0756 65.2265C32.0756 63.0835 30.3383 61.3461 28.1952 61.3461C26.0521 61.3461 24.3148 63.0835 24.3148 65.2265C24.3148 67.3696 26.0521 69.107 28.1952 69.107Z" fill="black" stroke="black" stroke-width="0.287999"/>
<path d="M65.3246 69.107C67.4677 69.107 69.205 67.3696 69.205 65.2265C69.205 63.0835 67.4677 61.3461 65.3246 61.3461C63.1815 61.3461 61.4442 63.0835 61.4442 65.2265C61.4442 67.3696 63.1815 69.107 65.3246 69.107Z" fill="black" stroke="black" stroke-width="0.287999"/>
</svg>
