<svg width="94" height="94" viewBox="0 0 94 94" fill="none" xmlns="http://www.w3.org/2000/svg">
<path d="M94 0H0V94H94V0Z" fill="white"/>
<path d="M87 5H7C5.89543 5 5 5.89543 5 7V87C5 88.1046 5.89543 89 7 89H87C88.1046 89 89 88.1046 89 87V7C89 5.89543 88.1046 5 87 5Z" fill="#F0EBE4"/>
<path fill-rule="evenodd" clip-rule="evenodd" d="M76.1327 58.3281V68.8707C76.1327 75.1712 71.2727 76.9842 64.7995 76.9842H25.358C19.1312 76.9842 17.0438 73.2372 17.0438 69.508V69.0786L17 46.2882L17.0147 24.7642C16.8964 21.4076 19.437 18.0507 24.6365 18.1123L70.5138 18L70.5206 20.0099C70.7485 27.555 69.8225 29.749 63.7791 29.9497L35.1322 29.8239L35.1024 41.695L64.9133 41.7528C71.1491 41.7649 76.0334 43.2525 76.1184 48.974C76.1532 51.3354 76.1327 56.133 76.1327 58.3281ZM34.8525 65.3894H35.0184H55.068C57.2091 65.3894 58.2897 64.3417 58.2897 63.062V55.5808C58.2897 54.3011 57.208 53.4189 55.068 53.4216L34.8525 53.4514L34.8525 65.3894Z" fill="#008080"/>
</svg>
