<svg width="94" height="94" viewBox="0 0 94 94" fill="none" xmlns="http://www.w3.org/2000/svg">
<path d="M94 0H0V94H94V0Z" fill="white"/>
<path d="M87 5H7C5.89543 5 5 5.89543 5 7V87C5 88.1046 5.89543 89 7 89H87C88.1046 89 89 88.1046 89 87V7C89 5.89543 88.1046 5 87 5Z" fill="#F0EBE4"/>
<path fill-rule="evenodd" clip-rule="evenodd" d="M76.2126 57.5309V69.4115C76.2126 73.1404 71.1069 76.187 64.8793 76.187H22.4624C16.2349 76.187 17.1235 73.1407 17.1235 69.4115V64.5922H55.1478C57.2889 64.5922 59.0415 63.5445 59.0415 62.2648V54.7836C59.0415 53.5038 57.2893 52.4561 55.1478 52.4561H34.7996V40.8613V40.7309H55.1478C57.2893 40.7309 59.0415 39.6832 59.0415 38.4035V30.9223C59.0415 29.6425 57.2889 28.5948 55.1478 28.5948H17.1235V23.7756C17.1235 20.0463 15.7734 17 22.0013 17H64.8793C71.1072 17 76.2127 20.0467 76.2127 23.7756V35.435C76.3669 38.5369 75.6374 40.0253 73.7514 40.8171C71.195 41.8905 70.3608 43.6378 70.3608 44.9217V48.3848C70.3608 50.8007 71.4996 51.746 73.6849 52.7759C75.8237 53.7839 76.2126 55.335 76.2126 57.5309Z" fill="#FF0000"/>
</svg>
