<svg width="94" height="94" viewBox="0 0 94 94" fill="none" xmlns="http://www.w3.org/2000/svg">
<path d="M94 0H0V94H94V0Z" fill="white"/>
<path d="M87 5H7C5.89543 5 5 5.89543 5 7V87C5 88.1046 5.89543 89 7 89H87C88.1046 89 89 88.1046 89 87V7C89 5.89543 88.1046 5 87 5Z" fill="#F0EBE4"/>
<path fill-rule="evenodd" clip-rule="evenodd" d="M26.1269 76.1215L67.4128 76.1109L67.4063 64.5296L55.5218 64.527L55.5211 17.019C51.62 17.0129 47.7189 17.0065 43.8182 17C41.1343 26.5327 34.531 31.6558 26.1474 34.7746L26.103 40.4662L37.9974 40.4658L37.9525 64.4899L26 64.4401L26.1269 76.1215Z" fill="#0000FF"/>
</svg>
