<svg width="94" height="94" viewBox="0 0 94 94" fill="none" xmlns="http://www.w3.org/2000/svg">
<path d="M94 0H0V94H94V0Z" fill="white"/>
<path d="M87 5H7C5.89543 5 5 5.89543 5 7V87C5 88.1046 5.89543 89 7 89H87C88.1046 89 89 88.1046 89 87V7C89 5.89543 88.1046 5 87 5Z" fill="#F0EBE4"/>
<path fill-rule="evenodd" clip-rule="evenodd" d="M53.3695 18H70.4757V41.728H74.2004C75.1404 41.728 76.5456 42.1298 76.5456 44.0324C76.5456 45.935 76.5456 50.1303 76.5456 50.695C76.5456 51.2596 76.961 53.3754 74.4764 53.454C71.9917 53.5326 70.4757 53.592 70.4757 53.592V76.906H52.956V53.3164H25.9837C19.9905 53.3164 13.8764 54.5315 18.7962 44.925L27.5972 23.7154C28.6857 20.1929 31.1753 18.0718 35.7127 18H46.6098L37.0911 41.728H52.8178L53.3695 18Z" fill="#000080"/>
</svg>
