<svg width="94" height="94" viewBox="0 0 94 94" fill="none" xmlns="http://www.w3.org/2000/svg">
<path d="M94 0H0V94H94V0Z" fill="white"/>
<path d="M87 5H7C5.89543 5 5 5.89543 5 7V87C5 88.1046 5.89543 89 7 89H87C88.1046 89 89 88.1046 89 87V7C89 5.89543 88.1046 5 87 5Z" fill="#F0EBE4"/>
<path fill-rule="evenodd" clip-rule="evenodd" d="M18.0116 18H76.8888V32.5327C77.0978 37.3263 75.9529 40.7664 74.194 43.592L56.1482 76.7963C53.3812 76.7963 50.6146 76.7963 47.8479 76.7963C43.5257 76.7177 42.0868 76.6134 42.0475 72.8554C41.8846 69.8677 42.6987 67.0251 44.9963 63.3491L56.8228 42.7525C58.0258 40.9603 59.3906 38.4847 59.2375 35.0427V30.703H24.6967C21.3983 30.7805 17.9737 29.7332 18.0002 23.6791L18.0116 18Z" fill="black"/>
</svg>
