<svg width="94" height="94" viewBox="0 0 94 94" fill="none" xmlns="http://www.w3.org/2000/svg">
<path d="M94 0H0V94H94V0Z" fill="white"/>
<path d="M87 5H7C5.89543 5 5 5.89543 5 7V87C5 88.1046 5.89543 89 7 89H87C88.1046 89 89 88.1046 89 87V7C89 5.89543 88.1046 5 87 5Z" fill="#F0EBE4"/>
<path fill-rule="evenodd" clip-rule="evenodd" d="M18.0018 34.8159H35.1797V29.1043C42.3567 29.136 48.478 29.0264 55.6554 29.0578C56.9321 29.1243 61.3987 28.32 61.2275 32.9016L61.2479 35.1515C61.0945 38.8086 56.6301 38.9851 53.4455 40.4243C29.8982 47.6493 18.2112 51.2474 18.1912 55.9265C18.0563 58.2989 18.1069 61.482 18.0623 63.944L18.074 75.749L76.4522 76.13L76.2621 64.5163L35.297 64.4369L35.2766 62.721C35.3937 61.4768 34.9527 59.9321 36.5816 59.2038C43.5193 56.6341 58.1079 51.8054 71.5748 47.3108C75.9931 45.3798 76.7411 40.2858 76.7138 35.1788L76.7717 24.7942C76.7475 19.961 74.1313 16.8115 69.4889 17.0088L24.593 17.0813C18.6357 17.2949 18.0072 22.8277 18 25.9186L18.0018 34.8159Z" fill="#008000"/>
</svg>
