<svg width="94" height="94" viewBox="0 0 94 94" fill="none" xmlns="http://www.w3.org/2000/svg">
<path d="M94 0H0V94H94V0Z" fill="white"/>
<path d="M87 5H7C5.89543 5 5 5.89543 5 7V87C5 88.1046 5.89543 89 7 89H87C88.1046 89 89 88.1046 89 87V7C89 5.89543 88.1046 5 87 5Z" fill="#F0EBE4"/>
<path fill-rule="evenodd" clip-rule="evenodd" d="M38.5124 65.0783H55.0682C57.2093 65.0783 58.2899 64.0306 58.2899 62.7509V55.4394C58.2899 54.1596 57.2074 53.2775 55.0682 53.2801L38.5124 53.3047C36.1706 53.1936 34.633 53.7764 34.8526 55.9292V62.4958C34.7532 64.3372 35.9736 65.1978 38.5124 65.0783ZM76.1331 58.3284V68.8711C76.1331 75.1715 71.273 76.9846 64.7997 76.9846H25.358C19.1313 76.9846 17.0438 73.2375 17.0438 69.5083V69.0789L17.1175 56.2285C17.1429 52.1352 18.0125 50.5516 22.6655 50.7262C24.5519 50.3967 25.1547 44.5841 22.8417 44.3498C16.4358 44.0361 17.0163 39.9463 17.0178 35.723L17.0147 24.7642C16.8964 21.4076 19.437 18.0506 24.6366 18.1123L58.5469 18.0291L70.514 18C74.2675 18.2362 76.1418 20.3494 76.1392 24.3398L76.1089 37.5795C76.1694 42.4192 75.5499 44.1374 70.8924 44.3105C68.7332 44.3615 68.9391 50.7875 70.7344 50.7648C76.3909 51.0203 76.1153 55.1695 76.1187 55.5198C76.1218 55.8135 76.1331 56.4077 76.1331 58.3284ZM38.5124 41.3636H55.0682C57.2093 41.3636 58.2899 40.3159 58.2899 39.0362V31.7247C58.2899 30.4449 57.2074 29.5628 55.0682 29.5654L38.5124 29.59C36.1706 29.4789 34.633 30.0617 34.8526 32.2145V38.7811C34.7532 40.6225 35.9736 41.4831 38.5124 41.3636Z" fill="#808080"/>
</svg>
