<svg width="94" height="94" viewBox="0 0 94 94" fill="none" xmlns="http://www.w3.org/2000/svg">
<path d="M94 0H0V94H94V0Z" fill="white"/>
<path d="M87 5H7C5.89543 5 5 5.89543 5 7V87C5 88.1046 5.89543 89 7 89H87C88.1046 89 89 88.1046 89 87V7C89 5.89543 88.1046 5 87 5Z" fill="#F0EBE4"/>
<path fill-rule="evenodd" clip-rule="evenodd" d="M76.133 58.3283V71.4988C76.133 76.5736 71.2736 76.9844 64.7996 76.9844H22.3828C16.1552 76.9844 17.0438 73.9381 17.0438 70.2089V65.3896H55.0681C57.2092 65.3896 58.2898 64.3419 58.2898 63.0621V55.581C58.2898 54.3012 57.2081 53.4191 55.0681 53.4217L17.0189 53.4777L17.0136 18.1308L75.9584 18L75.9716 21.1257C76.2093 28.2614 74.3033 29.9754 68.8173 29.9947L34.4785 29.9988L34.4486 41.8699L64.9135 41.7528C69.9244 41.7335 76.0328 41.5003 76.1187 47.2221C76.1538 49.5843 76.133 56.1327 76.133 58.3283Z" fill="#800000"/>
</svg>
